<?xml version="1.0" standalone="no"?>
<!DOCTYPE svg PUBLIC "-//W3C//DTD SVG 20010904//EN"
 "http://www.w3.org/TR/2001/REC-SVG-20010904/DTD/svg10.dtd">
<svg version="1.0" xmlns="http://www.w3.org/2000/svg"
 width="595.000000pt" height="595.000000pt" viewBox="0 0 595.000000 595.000000"
 preserveAspectRatio="xMidYMid meet">

<g transform="translate(0.000000,595.000000) scale(0.100000,-0.100000)"
fill="#000000" stroke="none">
<path d="M2890 5935 c-58 -18 -115 -66 -143 -118 l-22 -42 0 -720 c0 -719 0
-720 22 -760 97 -181 359 -181 456 0 22 40 22 45 25 735 2 513 0 706 -9 738
-37 132 -192 212 -329 167z"/>
<path d="M1505 5561 c-52 -24 -121 -99 -134 -147 -16 -59 -13 -138 8 -191 17
-44 91 -176 496 -875 81 -142 166 -276 188 -299 100 -104 265 -111 365 -16 71
68 99 173 69 264 -24 74 -629 1127 -688 1197 -66 79 -208 111 -304 67z"/>
<path d="M4240 5567 c-74 -24 -123 -92 -360 -502 -474 -824 -445 -767 -437
-866 6 -69 34 -125 85 -171 68 -61 174 -79 264 -45 86 33 119 81 449 652 172
297 320 561 331 588 22 58 23 138 2 200 -19 57 -95 131 -150 146 -49 14 -138
12 -184 -2z"/>
<path d="M542 4576 c-120 -39 -190 -143 -179 -266 6 -68 32 -123 84 -172 34
-32 973 -582 1128 -660 111 -56 236 -49 315 19 112 96 120 271 16 373 -30 30
-211 140 -578 353 -293 170 -557 320 -586 333 -66 30 -144 38 -200 20z"/>
<path d="M5285 4583 c-61 -13 -200 -88 -605 -325 -80 -46 -179 -104 -220 -127
-237 -137 -367 -214 -396 -236 -113 -86 -125 -284 -24 -385 77 -77 218 -92
330 -35 120 61 1049 599 1111 644 124 88 144 279 42 392 -50 55 -162 89 -238
72z"/>
<path d="M203 3220 c-127 -26 -202 -117 -203 -245 0 -92 16 -134 71 -187 83
-81 57 -79 835 -76 l679 3 60 30 c75 37 119 93 135 170 29 140 -55 275 -191
304 -60 13 -1321 13 -1386 1z"/>
<path d="M4332 3211 c-218 -75 -229 -383 -17 -478 37 -17 90 -18 724 -21 755
-3 749 -3 825 59 116 97 114 308 -4 401 -73 57 -91 58 -815 58 -615 -1 -664
-2 -713 -19z"/>
<path d="M4115 2481 c-54 -24 -119 -100 -135 -156 -29 -103 8 -220 87 -282 41
-32 224 -141 508 -303 99 -56 243 -140 320 -185 322 -188 358 -205 439 -205
106 0 209 73 241 171 21 64 16 149 -13 205 -41 78 -11 59 -790 509 -217 125
-413 235 -435 246 -56 25 -167 25 -222 0z"/>
<path d="M3612 1962 c-116 -42 -179 -138 -170 -263 5 -75 21 -105 312 -609
408 -706 388 -675 465 -709 101 -43 175 -38 263 18 63 40 99 103 106 186 6 85
-9 136 -75 248 -31 51 -143 245 -251 432 -263 458 -319 552 -358 606 -65 89
-188 128 -292 91z"/>
</g>
</svg>
